<?xml version="1.0" encoding="UTF-8"?>
<svg version="1.1" xmlns="http://www.w3.org/2000/svg" width="600" height="600">
<path d="M0 0 C198 0 396 0 600 0 C600 198 600 396 600 600 C402 600 204 600 0 600 C0 402 0 204 0 0 Z " fill="#020202" transform="translate(0,0)"/>
<path d="M0 0 C198 0 396 0 600 0 C600 198 600 396 600 600 C402 600 204 600 0 600 C0 402 0 204 0 0 Z M280 51 C278.04330662 51.1314197 276.08437712 51.23027194 274.125 51.3125 C239.93514072 53.65954977 203.69719343 66.31585607 175 85 C174.13890625 85.52851562 173.2778125 86.05703125 172.390625 86.6015625 C158.41412496 95.24804134 144.95759354 105.59241509 133.5390625 117.4609375 C131.93472396 119.06527604 130.25071305 120.49528264 128.5 121.9375 C124.55308202 125.28455599 121.30095348 129.02316574 118 133 C117.53287598 133.55478027 117.06575195 134.10956055 116.58447266 134.68115234 C90.85811053 165.28789768 72.03956099 200.97854669 63 240 C62.61908203 241.47339844 62.61908203 241.47339844 62.23046875 242.9765625 C61.39206121 246.30329187 60.68258837 249.63749572 60 253 C59.82936035 253.8146875 59.6587207 254.629375 59.48291016 255.46875 C56.53469774 270.02118851 55.61702223 284.19787061 55.625 299 C55.62327789 299.81104187 55.62155579 300.62208374 55.61978149 301.45770264 C55.62337631 316.40494561 56.80254056 331.23943926 59.625 345.9375 C59.78758301 346.78465576 59.95016602 347.63181152 60.11767578 348.50463867 C62.57145536 360.55626355 66.23669433 372.302874 70 384 C70.24975586 384.77682129 70.49951172 385.55364258 70.75683594 386.35400391 C78.62801744 410.22458991 90.9061181 433.88564498 106.75537109 453.43164062 C107.97675286 454.97070623 109.13963062 456.55562482 110.30078125 458.140625 C116.20728073 466.16768424 122.97139358 473.26689985 130 480.3125 C131.37043457 481.69103149 131.37043457 481.69103149 132.76855469 483.09741211 C141.30251538 491.54365333 150.41128174 499.12165715 160.25 506 C160.97179443 506.50563477 161.69358887 507.01126953 162.43725586 507.53222656 C191.96168086 527.99284373 225.81337999 542.83555957 261.52099609 547.63525391 C263.25406402 547.89024735 264.98116346 548.18779181 266.70166016 548.51708984 C276.41243889 550.28740682 286.0096382 550.30391195 295.84570312 550.26074219 C298.73068512 550.25007144 301.61503746 550.26066348 304.5 550.2734375 C320.79611509 550.28802074 336.14916833 548.73338476 352.0625 545.0625 C353.77856445 544.68448242 353.77856445 544.68448242 355.52929688 544.29882812 C360.88589441 543.08887455 366.05576774 541.78818148 371.15454102 539.73950195 C373.10368799 538.95845073 375.0706283 538.27343793 377.05859375 537.59765625 C420.45912302 522.52712969 461.27320974 495.05843727 489 458 C489.849992 456.90213588 490.70027115 455.80449404 491.55078125 454.70703125 C506.80534808 434.7411344 518.06015299 412.77590375 527.05712891 389.40869141 C527.70323503 387.75812615 528.3679751 386.1147688 529.04833984 384.47802734 C531.2501678 379.16689574 532.91955373 373.99342781 534.125 368.375 C534.43955042 366.9660221 534.75465268 365.55716727 535.0703125 364.1484375 C535.22209961 363.46104492 535.37388672 362.77365234 535.53027344 362.06542969 C535.99851135 360.00654573 536.50416129 357.96062167 537.0234375 355.9140625 C551.1455843 299.87749358 542.37369284 238.43828114 517 187 C516.64470215 186.27167969 516.2894043 185.54335937 515.92333984 184.79296875 C505.98153648 164.60933504 492.91193367 146.09815364 477.5234375 129.7109375 C475.42580917 127.45744824 473.4194089 125.16659836 471.4375 122.8125 C467.33552955 118.11492728 462.72990426 114.0496646 458 110 C457.39365723 109.47599609 456.78731445 108.95199219 456.16259766 108.41210938 C424.13879958 80.86644871 385.46098133 62.11030293 344 54 C342.97519531 53.78601562 341.95039063 53.57203125 340.89453125 53.3515625 C334.8653072 52.1509378 328.88536732 51.60743149 322.75 51.24609375 C320 51 320 51 317 50 C314.44889067 49.90331179 311.92595847 49.86000382 309.375 49.8671875 C308.63169434 49.86623077 307.88838867 49.86527405 307.12255859 49.86428833 C305.55240799 49.86360841 303.98225456 49.86544957 302.41210938 49.86962891 C300.00905035 49.87497985 297.60617822 49.86967758 295.203125 49.86328125 C293.67708292 49.86394206 292.15104096 49.8652233 290.625 49.8671875 C289.54677979 49.86415115 289.54677979 49.86415115 288.44677734 49.86105347 C285.35606493 49.87557714 282.95578923 50.01473692 280 51 Z " fill="#FEFEFE" transform="translate(0,0)"/>
<path d="M0 0 C0.69528809 -0.00376648 1.39057617 -0.00753296 2.10693359 -0.01141357 C11.20323724 -0.03646558 19.91462423 0.72772991 28.875 2.3125 C30.25910726 2.50943318 31.64437775 2.69858872 33.03125 2.875 C34.1346875 3.019375 35.238125 3.16375 36.375 3.3125 C37.4990625 3.456875 38.623125 3.60125 39.78125 3.75 C42.74433781 4.28874324 45.10183643 5.17313822 47.875 6.3125 C50.14059213 6.85567923 52.41233097 7.37344516 54.6875 7.875 C71.80280597 11.94658988 88.50579505 18.78482008 103.875 27.3125 C104.57705566 27.70050781 105.27911133 28.08851562 106.00244141 28.48828125 C115.50707815 33.79319478 124.36665549 39.5034141 132.875 46.3125 C133.78507812 47.03050781 134.69515625 47.74851563 135.6328125 48.48828125 C142.66227954 54.12587376 149.31695169 60.1390286 155.875 66.3125 C156.4834375 66.87195313 157.091875 67.43140625 157.71875 68.0078125 C158.875 69.3125 158.875 69.3125 158.875 71.3125 C159.535 71.3125 160.195 71.3125 160.875 71.3125 C183.44181289 93.34104882 199.98508711 124.70636206 209.875 154.3125 C210.37153492 155.70259743 210.87034007 157.09188547 211.37109375 158.48046875 C215.30908591 169.5749807 217.9433457 180.7055082 219.875 192.3125 C220.05377686 193.2936377 220.23255371 194.27477539 220.41674805 195.28564453 C222.20855792 206.07481417 222.22860577 216.7757656 222.1875 227.6875 C222.18600952 228.66160828 222.18451904 229.63571655 222.1829834 230.63934326 C222.14234228 245.40510937 221.58613779 259.76173412 218.875 274.3125 C218.74641602 275.06853516 218.61783203 275.82457031 218.48535156 276.60351562 C212.0200435 314.07927074 193.64375072 350.01529353 169.60546875 379.1875 C168.54610418 380.48839013 167.51860017 381.81713693 166.55078125 383.1875 C164.00606372 386.7044518 161.71750669 388.15589496 157.45336914 388.96044922 C154.24141816 389.39900933 151.02641584 389.8019519 147.80859375 390.1953125 C141.60424601 390.96077051 135.40641904 391.76747925 129.2109375 392.6015625 C127.55859788 392.82294751 125.90625411 393.04430151 124.25390625 393.265625 C121.73036458 393.6038775 119.20701141 393.94334089 116.68408203 394.28613281 C114.19350334 394.62404813 111.70229966 394.95697952 109.2109375 395.2890625 C108.46089447 395.39215729 107.71085144 395.49525208 106.93807983 395.60147095 C102.89427505 396.13582943 98.95152042 396.6056822 94.875 396.3125 C92.5 394.3125 92.5 394.3125 90.875 392.3125 C91.41125 391.714375 91.9475 391.11625 92.5 390.5 C94.51078073 387.8013206 96.05810572 385.26601053 97.64453125 382.31640625 C98.17336914 381.33647705 98.70220703 380.35654785 99.24707031 379.34692383 C99.78428711 378.34556396 100.32150391 377.3442041 100.875 376.3125 C101.86573652 374.47387809 102.85662013 372.63533544 103.84765625 370.796875 C104.34789307 369.86786377 104.84812988 368.93885254 105.36352539 367.98168945 C113.90129972 352.14701166 122.74986162 336.49827101 131.69995117 320.89379883 C133.66529126 317.46242462 135.62118727 314.02572784 137.57519531 310.58789062 C138.76517101 308.50476262 139.97075246 306.43153021 141.1796875 304.359375 C141.82164062 303.23015625 142.46359375 302.1009375 143.125 300.9375 C143.66640625 300.00164062 144.2078125 299.06578125 144.765625 298.1015625 C146.15250469 294.61482976 146.19468798 292.03938876 145.875 288.3125 C145.44574219 287.53132813 145.01648438 286.75015625 144.57421875 285.9453125 C143.53920422 282.04810694 145.24602514 280.00415253 147.20507812 276.62109375 C147.93887695 275.41646484 147.93887695 275.41646484 148.6875 274.1875 C149.63331221 272.58178912 150.57739789 270.97505967 151.51953125 269.3671875 C151.94596924 268.66062012 152.37240723 267.95405273 152.81176758 267.22607422 C155.04589363 263.20516033 155.25914974 259.84546696 154.875 255.3125 C150.58766882 247.21420777 143.25206154 243.71809649 135.49414062 239.58007812 C134.80126953 239.20173828 134.10839844 238.82339844 133.39453125 238.43359375 C132.76651611 238.0977124 132.13850098 237.76183105 131.49145508 237.41577148 C129.875 236.3125 129.875 236.3125 127.875 233.3125 C128.38232422 231.41137695 128.38232422 231.41137695 129.4296875 229.30078125 C129.98076172 228.16479492 129.98076172 228.16479492 130.54296875 227.00585938 C131.14044922 225.82733398 131.14044922 225.82733398 131.75 224.625 C132.14058594 223.82771484 132.53117187 223.03042969 132.93359375 222.20898438 C133.9018545 220.2370387 134.88257485 218.27236572 135.875 216.3125 C141.01095079 218.17239394 145.34766965 221.0278854 149.9375 223.94921875 C152.75388112 225.53241686 152.75388112 225.53241686 155.63671875 225.1796875 C158.71855072 223.9856793 159.46208351 222.21269701 160.875 219.3125 C161.41125 219.621875 161.9475 219.93125 162.5 220.25 C165.2734957 221.49077439 167.87542837 221.9034675 170.875 222.3125 C171.15134277 221.58417969 171.42768555 220.85585938 171.71240234 220.10546875 C172.80904513 217.47094682 174.05094166 215.09369584 175.4765625 212.625 C175.96640625 211.76132812 176.45625 210.89765625 176.9609375 210.0078125 C177.98890565 208.20756371 179.02279291 206.41068224 180.0625 204.6171875 C180.54976563 203.75351562 181.03703125 202.88984375 181.5390625 202 C181.98717285 201.22011719 182.4352832 200.44023437 182.89697266 199.63671875 C184.04232377 196.91486589 184.35989883 195.23203231 183.875 192.3125 C182.20390955 190.60248004 182.20390955 190.60248004 179.859375 189.3828125 C178.60060547 188.65578125 178.60060547 188.65578125 177.31640625 187.9140625 C176.42824219 187.42679688 175.54007812 186.93953125 174.625 186.4375 C173.75230469 185.92703125 172.87960937 185.4165625 171.98046875 184.890625 C167.65370484 182.22014637 167.65370484 182.22014637 162.78857422 181.34936523 C159.9261275 182.79008383 159.17006117 184.76983764 157.7109375 187.58984375 C157.14632813 188.66041016 156.58171875 189.73097656 156 190.83398438 C155.4225 191.96126953 154.845 193.08855469 154.25 194.25 C153.09405101 196.46896376 151.9353302 198.68648645 150.7734375 200.90234375 C150.26474121 201.89097412 149.75604492 202.87960449 149.23193359 203.89819336 C147.875 206.3125 147.875 206.3125 145.875 208.3125 C143.25 207.9375 143.25 207.9375 140.875 207.3125 C145.87603314 195.99731329 151.01696097 184.79539436 156.62792969 173.77001953 C159.35406652 168.39780078 162.05021808 163.01049477 164.75 157.625 C165.32202148 156.4891748 165.89404297 155.35334961 166.48339844 154.18310547 C167.02254883 153.10818848 167.56169922 152.03327148 168.1171875 150.92578125 C168.6004248 149.96454346 169.08366211 149.00330566 169.58154297 148.01293945 C171.99792617 142.96808959 173.20669979 139.14475222 173.3125 133.5 C173.35246094 132.33855469 173.39242188 131.17710937 173.43359375 129.98046875 C172.62451488 124.66770609 170.41454976 120.55184349 166.35083008 116.96850586 C164.63441306 115.76879838 162.88479422 114.71917662 161.0625 113.6875 C160.37728271 113.27910889 159.69206543 112.87071777 158.98608398 112.44995117 C156.62670018 111.05117548 154.25170472 109.68161841 151.875 108.3125 C150.03839466 107.23942347 148.20248795 106.16515054 146.3671875 105.08984375 C142.31730559 102.72080847 138.26142874 100.36238547 134.203125 98.0078125 C127.99608437 94.39626978 121.83753398 90.70756811 115.6875 87 C105.19577853 80.67649637 94.64380056 74.46162544 84.05786133 68.29760742 C77.37043271 64.39498979 70.75053582 60.40191936 64.16601562 56.32836914 C58.40965743 52.80238623 52.57912804 49.40366628 46.75 46 C45.48132277 45.25788287 44.21268719 44.51569452 42.9440918 43.7734375 C35.53318748 39.43945708 28.11530078 35.11746431 20.6875 30.8125 C19.52226807 30.13707153 19.52226807 30.13707153 18.33349609 29.44799805 C11.4146473 25.44841094 6.93796254 24.3557084 -1.125 25.3125 C-9.95383137 28.25073508 -14.40670551 37.01490633 -19.00976562 44.49951172 C-20.47184943 46.87635812 -21.98788191 49.21724888 -23.5 51.5625 C-24.71054281 53.47777196 -25.91853658 55.39465575 -27.125 57.3125 C-29.0404853 60.35491221 -30.95727394 63.39649972 -32.875 66.4375 C-33.38305176 67.24324463 -33.89110352 68.04898926 -34.41455078 68.87915039 C-39.58563313 77.06629129 -44.84513218 85.1952229 -50.125 93.3125 C-51.445 92.6525 -52.765 91.9925 -54.125 91.3125 C-53.5358796 87.41933428 -52.36277584 84.59087361 -50.40234375 81.1875 C-49.59506836 79.75664062 -49.59506836 79.75664062 -48.77148438 78.296875 C-47.63119559 76.30560499 -46.48795895 74.31602018 -45.34179688 72.328125 C-44.80490234 71.37421875 -44.26800781 70.4203125 -43.71484375 69.4375 C-43.21847412 68.57382813 -42.72210449 67.71015625 -42.21069336 66.8203125 C-41.00954927 64.04582361 -40.70041129 62.30102413 -41.125 59.3125 C-43.2061798 57.648775 -45.00618842 56.44639284 -47.3125 55.1875 C-47.89064453 54.85363281 -48.46878906 54.51976562 -49.06445312 54.17578125 C-50.74371655 53.20807012 -52.4342308 52.25996504 -54.125 51.3125 C-54.98738281 50.71695313 -55.84976563 50.12140625 -56.73828125 49.5078125 C-59.04424659 48.11173095 -59.04424659 48.11173095 -61.5637207 48.41455078 C-65.07590301 49.64587349 -65.73633596 51.24437877 -67.4921875 54.484375 C-68.06710938 55.54140625 -68.64203125 56.5984375 -69.234375 57.6875 C-69.81703125 58.80125 -70.3996875 59.915 -71 61.0625 C-71.60585937 62.16078125 -72.21171875 63.2590625 -72.8359375 64.390625 C-76.05962693 69.90803651 -76.05962693 69.90803651 -77.03564453 76.04394531 C-76.21174042 78.82200353 -76.21174042 78.82200353 -72.125 80.3125 C-72.455 83.9425 -72.785 87.5725 -73.125 91.3125 C-67.515 94.6125 -61.905 97.9125 -56.125 101.3125 C-57.98538064 105.03326128 -60.05683286 108.53638322 -62.25 112.0625 C-62.62253906 112.66449219 -62.99507812 113.26648438 -63.37890625 113.88671875 C-64.29274724 115.36292343 -65.20866598 116.83784154 -66.125 118.3125 C-71.25377386 116.85735951 -75.33955744 114.55056641 -79.8125 111.75 C-85.76202814 108.05539506 -89.91891812 105.70181509 -97.125 106.3125 C-103.87713314 109.48186862 -107.45993947 115.68573022 -110.484375 122.2734375 C-110.94328125 123.25570312 -111.4021875 124.23796875 -111.875 125.25 C-112.26171875 126.16652344 -112.6484375 127.08304687 -113.046875 128.02734375 C-115.55156888 130.78156541 -116.35927444 130.6106681 -119.9375 131 C-123.14793584 131.51085725 -124.66824108 131.83221145 -126.93066406 134.21118164 C-128.58320105 136.86939179 -129.9973045 139.56435383 -131.375 142.375 C-132.48362776 144.4808623 -133.59302949 146.5863173 -134.703125 148.69140625 C-135.54520508 150.33133545 -135.54520508 150.33133545 -136.40429688 152.00439453 C-139.18273152 157.34602186 -142.16146407 162.57207103 -145.125 167.8125 C-146.30294591 169.91618391 -147.48003104 172.02035003 -148.65625 174.125 C-151.43310393 179.08366772 -154.22320705 184.0346596 -157.02246094 188.98071289 C-158.0841814 190.85683959 -159.14474347 192.73362235 -160.20410156 194.61108398 C-163.12315399 199.78385607 -166.05997649 204.94569539 -169.015625 210.09765625 C-170.30225878 212.35667092 -171.58872102 214.61578329 -172.875 216.875 C-173.48408203 217.92816406 -174.09316406 218.98132813 -174.72070312 220.06640625 C-175.28208984 221.05640625 -175.84347656 222.04640625 -176.421875 223.06640625 C-176.92041992 223.93595947 -177.41896484 224.8055127 -177.93261719 225.70141602 C-179.24701874 228.57969705 -179.73734729 231.18354798 -180.125 234.3125 C-181.0696814 234.07744751 -181.0696814 234.07744751 -182.03344727 233.83764648 C-184.91506433 233.12855747 -187.80105572 232.43916371 -190.6875 231.75 C-191.67814453 231.50314453 -192.66878906 231.25628906 -193.68945312 231.00195312 C-202.93606974 228.82085751 -209.0662152 229.94945213 -217.5625 233.875 C-218.29404297 234.20435547 -219.02558594 234.53371094 -219.77929688 234.87304688 C-221.56479399 235.67827106 -223.34542155 236.49427846 -225.125 237.3125 C-227.3850557 182.19611595 -210.00689954 129.91862702 -176.125 86.3125 C-175.20847656 85.10400391 -175.20847656 85.10400391 -174.2734375 83.87109375 C-166.01312724 73.20299092 -156.65971623 62.7772369 -146.125 54.3125 C-145.02832936 53.40402773 -143.93201038 52.49513088 -142.8359375 51.5859375 C-124.44400941 36.4621173 -104.29167796 24.10575707 -82.125 15.3125 C-81.48336914 15.0551709 -80.84173828 14.7978418 -80.18066406 14.53271484 C-54.53889892 4.41568657 -27.44460585 0.0821373 0 0 Z " fill="#FCFCFC" transform="translate(301.125,69.6875)"/>
<path d="M0 0 C9.38580692 3.64733429 9.38580692 3.64733429 12 7 C12.59979095 10.73554011 12.41370511 14.25038704 12 18 C16.7517398 17.56802365 18.92000054 16.67230705 22 13 C25.34305252 14.26097595 28.33449735 15.69019048 31.375 17.5625 C32.22964844 18.08457031 33.08429688 18.60664063 33.96484375 19.14453125 C35.46724609 20.06298828 35.46724609 20.06298828 37 21 C40.29969493 22.98187873 43.60513617 24.95417734 46.90966797 26.92797852 C54.9104587 31.72113197 54.9104587 31.72113197 55.921875 34.87109375 C56.19515625 36.04800781 56.4684375 37.22492188 56.75 38.4375 C59.62730388 48.99482552 64.07619967 56.73027148 73.46875 62.62890625 C81.8102598 67.14722406 90.50003983 68.63167724 99.84765625 66.28515625 C101.52603363 65.7487676 103.19393283 65.17727519 104.84375 64.55859375 C108.20857377 63.68690933 110.33070673 64.64775131 113.36254883 66.2434082 C114.21872803 66.75734131 115.07490723 67.27127441 115.95703125 67.80078125 C116.90513672 68.36603516 117.85324219 68.93128906 118.83007812 69.51367188 C119.81427734 70.10728516 120.79847656 70.70089844 121.8125 71.3125 C123.75626637 72.47566834 125.70027152 73.63843776 127.64453125 74.80078125 C128.56186035 75.35072754 129.47918945 75.90067383 130.42431641 76.46728516 C133.59362092 78.35324665 136.78893982 80.18622124 140 82 C139.835 82.515625 139.67 83.03125 139.5 83.5625 C138.84951 86.73363876 138.9379266 89.77218334 139 93 C140.67828408 93.96624167 140.67828408 93.96624167 143 94 C143.94875 93.154375 144.8975 92.30875 145.875 91.4375 C146.90625 90.633125 147.9375 89.82875 149 89 C154.23944017 89.68340524 158.65818831 93.11280543 163 96 C161.72501812 100.15459001 160.1642209 103.78410597 158.0234375 107.5625 C157.43836426 108.60035645 156.85329102 109.63821289 156.25048828 110.70751953 C155.63157715 111.79403809 155.01266602 112.88055664 154.375 114 C153.43309814 115.67425049 153.43309814 115.67425049 152.47216797 117.38232422 C149.79955631 122.12329891 147.11403343 126.85101043 144.296875 131.5078125 C143.92127441 132.13558594 143.54567383 132.76335937 143.15869141 133.41015625 C142.20492728 134.99240453 141.23220536 136.56318383 140.2578125 138.1328125 C138.70892232 141.66351248 138.59435504 144.18243022 139 148 C141.39583651 150.81331378 141.39583651 150.81331378 144 153 C144 153.66 144 154.32 144 155 C140.21048756 156.50548369 136.41804969 158.00345314 132.625 159.5 C131.00464844 160.14388672 131.00464844 160.14388672 129.3515625 160.80078125 C128.3203125 161.20683594 127.2890625 161.61289062 126.2265625 162.03125 C125.27346191 162.40830078 124.32036133 162.78535156 123.33837891 163.17382812 C121 164 121 164 119 164 C118.72526855 164.72074707 118.45053711 165.44149414 118.16748047 166.18408203 C117.03230439 168.92208305 115.74522203 171.45719104 114.3203125 174.0546875 C113.54494141 175.47201172 113.54494141 175.47201172 112.75390625 176.91796875 C112.21636719 177.89378906 111.67882812 178.86960937 111.125 179.875 C110.59519531 180.84308594 110.06539062 181.81117188 109.51953125 182.80859375 C106.72752136 187.90072097 103.90083688 192.96908001 101 198 C99.76139271 194.42386668 100.24561458 191.94480714 101.109375 188.30078125 C101.36920166 187.18251953 101.62902832 186.06425781 101.89672852 184.91210938 C102.17830811 183.72423828 102.4598877 182.53636719 102.75 181.3125 C103.2961083 178.85037911 103.84168243 176.38813967 104.38671875 173.92578125 C105.28832605 169.93663994 106.25758999 166.01478991 107.45703125 162.10546875 C109.70204166 154.20869025 109.43121649 149.69441395 105.50756836 142.5078125 C103.606649 139.34566778 101.58577699 136.2873319 99.4921875 133.25 C97.09261956 129.63180332 95.04462843 125.82689304 93 122 C69.38177289 119.93345371 69.38177289 119.93345371 48.546875 129.12890625 C46 131 46 131 44.05224609 130.76904297 C41.87688202 129.95386371 40.42616512 129.01553915 38.6171875 127.56640625 C37.70259766 126.8403418 37.70259766 126.8403418 36.76953125 126.09960938 C35.83173828 125.33874023 35.83173828 125.33874023 34.875 124.5625 C34.24207031 124.05912109 33.60914063 123.55574219 32.95703125 123.03710938 C30.53081521 121.0976819 28.19835723 119.19835723 26 117 C21.8124024 117.34466727 18.46853616 118.50652478 14.70703125 120.3203125 C13.74732422 120.77277344 12.78761719 121.22523438 11.79882812 121.69140625 C9.79536997 122.65317099 7.79277491 123.61673556 5.79101562 124.58203125 C4.83517578 125.03191406 3.87933594 125.48179687 2.89453125 125.9453125 C2.02675049 126.36312988 1.15896973 126.78094727 0.26489258 127.21142578 C-2 128 -2 128 -5 127 C-11.67332589 118.48257714 -15.08021406 111.48306818 -14.31640625 100.53515625 C-14.21199219 99.69855469 -14.10757813 98.86195313 -14 98 C-14.87289673 97.80748657 -14.87289673 97.80748657 -15.76342773 97.61108398 C-17.95014629 97.0136212 -19.76416515 96.23973946 -21.78515625 95.22265625 C-22.82833008 94.69961914 -22.82833008 94.69961914 -23.89257812 94.16601562 C-24.60865234 93.80185547 -25.32472656 93.43769531 -26.0625 93.0625 C-26.78244141 92.70220703 -27.50238281 92.34191406 -28.24414062 91.97070312 C-31.29825417 90.43088543 -34.14642656 88.90238229 -37 87 C-36.45274123 78.65430371 -34.76581936 70.68230259 -32.96875 62.53515625 C-32.19629806 59.01628921 -31.60182294 55.5001429 -31.0625 51.9375 C-30.62890625 49.671875 -30.62890625 49.671875 -30 48 C-27.5 46.6875 -27.5 46.6875 -25 46 C-24.27590469 44.35746896 -23.61957769 42.68473906 -23 41 C-22.04805161 39.18656292 -21.06511441 37.38919405 -20.05859375 35.60546875 C-19.47867676 34.57413818 -18.89875977 33.54280762 -18.30126953 32.48022461 C-17.68622559 31.39362549 -17.07118164 30.30702637 -16.4375 29.1875 C-15.81214355 28.07705322 -15.18678711 26.96660645 -14.54248047 25.82250977 C-13.285622 23.59123839 -12.02750086 21.36067776 -10.76806641 19.13085938 C-8.77418734 15.6001351 -6.78701062 12.06568553 -4.80102539 8.53051758 C-3.20268208 5.68588458 -1.60149249 2.84286101 0 0 Z " fill="#FCFCFC" transform="translate(201,286)"/>
<path d="M0 0 C5.09313784 0.363255 8.71986231 2.31833616 12.9375 5 C14.2785149 5.828337 15.61966429 6.65645633 16.9609375 7.484375 C17.97559082 8.11762695 17.97559082 8.11762695 19.01074219 8.76367188 C22.00779587 10.62634736 25.03414472 12.43882262 28.0625 14.25 C28.66392822 14.61101807 29.26535645 14.97203613 29.88500977 15.34399414 C40.71289747 21.83795571 51.5944861 28.24348744 62.484375 34.6328125 C69.90833394 38.98864051 77.31106073 43.37657602 84.6875 47.8125 C91.62917852 51.98686518 98.58673475 56.1328439 105.5625 60.25 C106.45501465 60.77706543 107.3475293 61.30413086 108.26708984 61.84716797 C112.32984284 64.24571229 116.39327178 66.64309675 120.45898438 69.03662109 C123.48418799 70.81768691 126.50785598 72.60133807 129.5307312 74.38635254 C131.26167479 75.40751587 132.99421732 76.42596738 134.72680664 77.44433594 C137.82972075 79.27742211 140.9193657 81.12974387 144 83 C144.90927246 83.54930176 145.81854492 84.09860352 146.75537109 84.66455078 C147.57215332 85.17872559 148.38893555 85.69290039 149.23046875 86.22265625 C149.93969482 86.66488525 150.6489209 87.10711426 151.37963867 87.56274414 C153.38775634 89.34393876 153.78825698 90.3372375 154 93 C153.41430664 94.94433594 153.41430664 94.94433594 152.41015625 96.984375 C151.85763184 98.12821655 151.85763184 98.12821655 151.29394531 99.29516602 C150.68437988 100.51030884 150.68437988 100.51030884 150.0625 101.75 C149.44713379 103.01058228 149.44713379 103.01058228 148.81933594 104.29663086 C147.55860121 106.87075224 146.28123713 109.43603188 145 112 C144.26403775 113.48553584 143.52834399 114.97120474 142.79296875 116.45703125 C140.87809777 120.31291172 138.94050343 124.15695952 137 128 C135.9990283 129.99951386 134.99887751 131.99943915 134 134 C133.33333333 135.33333333 132.66666667 136.66666667 132 138 C128.11285811 137.41503965 125.33804847 136.26076121 121.96484375 134.26171875 C121.00126953 133.69517578 120.03769531 133.12863281 119.04492188 132.54492188 C117.50674805 131.62549805 117.50674805 131.62549805 115.9375 130.6875 C114.86693359 130.05521484 113.79636719 129.42292969 112.69335938 128.77148438 C105.30645597 124.4007172 97.94662655 119.98395873 90.59716797 115.55053711 C83.95679415 111.55132656 77.26506396 107.64390009 70.5625 103.75 C63.39027483 99.58307572 56.27454111 95.35879149 49.234375 90.97265625 C45.17413688 88.49630329 41.059267 86.12209353 36.9375 83.75 C29.48070633 79.45802561 22.08436707 75.07559572 14.71508789 70.63525391 C7.39612087 66.22805738 0.04496914 61.87672667 -7.31567383 57.53955078 C-9.87853484 56.02875589 -12.43932831 54.51450189 -15 53 C-15.92393555 52.45698242 -16.84787109 51.91396484 -17.79980469 51.35449219 C-19.14800293 50.55640137 -19.14800293 50.55640137 -20.5234375 49.7421875 C-21.33474121 49.26378418 -22.14604492 48.78538086 -22.98193359 48.29248047 C-25 47 -25 47 -27 45 C-26.67816458 40.98953309 -25.18314005 38.34389424 -22.97265625 35.04296875 C-22.34955566 34.10211426 -21.72645508 33.16125977 -21.08447266 32.19189453 C-20.41722168 31.20044434 -19.7499707 30.20899414 -19.0625 29.1875 C-17.69534698 27.12714264 -16.32946761 25.0659396 -14.96484375 23.00390625 C-14.29179199 21.9895752 -13.61874023 20.97524414 -12.92529297 19.93017578 C-9.82418984 15.2104903 -6.84607526 10.41722215 -3.88305664 5.61010742 C-1.09008224 1.09008224 -1.09008224 1.09008224 0 0 Z " fill="#FCFCFC" transform="translate(304,112)"/>
<path d="M0 0 C5.35850607 1.87066933 9.38398137 5.56153465 12.15234375 10.48828125 C14.35322931 17.00979928 14.21933748 24.32683706 11.375 30.5625 C6.3836447 35.68520676 1.72632986 40.23511527 -5.75 40.4375 C-11.28188104 40.32327237 -14.8189014 38.53264118 -19 35 C-24.53869833 29.16979123 -25.47157174 23.70362423 -25.30859375 15.87109375 C-24.62052904 9.46947904 -20.25686289 6.08485755 -15.5859375 2.19921875 C-11.03341116 -1.2432088 -5.4499312 -0.58807288 0 0 Z " fill="#F9F9F9" transform="translate(275,185)"/>
<path d="M0 0 C6.84889822 2.70716585 11.05666742 6.6570187 14.125 13.3515625 C15.78889646 21.33826553 14.05766776 26.58911421 9.75 33.3515625 C5.32778799 37.77377451 1.11710105 39.44309456 -5.0625 39.7265625 C-11.32444186 39.54977662 -15.60849879 37.97048677 -20.078125 33.5390625 C-24.28974693 28.18597295 -25.17074479 23.24660422 -24.83203125 16.51171875 C-23.76891932 10.73952041 -21.07847215 6.45388445 -16.36328125 2.94921875 C-14.5 1.8515625 -14.5 1.8515625 -11.25 0.3515625 C-7.57868043 -1.48409729 -3.88776367 -1.12043189 0 0 Z " fill="#F9F9F9" transform="translate(403.25,261.6484375)"/>
<path d="M0 0 C2.44750977 0.36865234 2.44750977 0.36865234 4.44750977 2.36865234 C4.19725296 7.33671347 1.4449526 11.58499904 -0.86499023 15.86865234 C-1.30286865 16.68946289 -1.74074707 17.51027344 -2.19189453 18.35595703 C-5.66633098 24.82336969 -9.24193715 31.23348088 -12.86499023 37.61865234 C-13.35588135 38.48683594 -13.84677246 39.35501953 -14.35253906 40.24951172 C-17.17341809 45.17204378 -20.17166228 49.81161648 -23.55249023 54.36865234 C-25.20249023 54.03865234 -26.85249023 53.70865234 -28.55249023 53.36865234 C-29.47326337 50.3369469 -29.70274648 48.77416179 -28.5871582 45.76342773 C-27.82363037 44.37885376 -27.82363037 44.37885376 -27.04467773 42.96630859 C-26.47612061 41.92071777 -25.90756348 40.87512695 -25.32177734 39.79785156 C-24.6966626 38.68684082 -24.07154785 37.57583008 -23.42749023 36.43115234 C-22.79528564 35.2892041 -22.16308105 34.14725586 -21.51171875 32.97070312 C-19.86813361 30.00945799 -18.20363812 27.06045384 -16.53509521 24.11322021 C-14.97282253 21.33948023 -13.44044558 18.54917069 -11.90014648 15.76318359 C-10.76604592 13.75519219 -9.62944666 11.74860936 -8.48999023 9.74365234 C-7.96711426 8.79627197 -7.44423828 7.8488916 -6.90551758 6.87280273 C-6.40616699 6.01291748 -5.90681641 5.15303223 -5.39233398 4.26708984 C-4.96299561 3.51089355 -4.53365723 2.75469727 -4.09130859 1.97558594 C-2.55249023 0.36865234 -2.55249023 0.36865234 0 0 Z " fill="#F0F0F0" transform="translate(350.552490234375,237.63134765625)"/>
<path d="M0 0 C4.55555556 0.55555556 4.55555556 0.55555556 6 2 C6.52651084 6.49927441 5.18507741 8.94175524 2.875 12.75 C2.14514934 13.97538175 1.41747145 15.202059 0.69140625 16.4296875 C0.27391113 17.1319043 -0.14358398 17.83412109 -0.57373047 18.55761719 C-4.15058256 24.68271619 -7.5442823 30.91497854 -10.98681641 37.11621094 C-17.7585746 49.25645063 -17.7585746 49.25645063 -21 54 C-23.6875 54.625 -23.6875 54.625 -26 54 C-26.66 53.34 -27.32 52.68 -28 52 C-27.89010001 46.05624228 -24.70110326 41.51577338 -21.75 36.5625 C-20.66316477 34.70364959 -19.57726275 32.84425332 -18.4921875 30.984375 C-17.92338867 30.01435547 -17.35458984 29.04433594 -16.76855469 28.04492188 C-13.16355887 21.83819798 -9.68410799 15.55919336 -6.19042969 9.28930664 C-5.67125977 8.36496826 -5.15208984 7.44062988 -4.6171875 6.48828125 C-4.15940918 5.66884033 -3.70163086 4.84939941 -3.22998047 4.00512695 C-2 2 -2 2 0 0 Z " fill="#F0F0F0" transform="translate(323,222)"/>
<path d="M0 0 C2.625 0.375 2.625 0.375 5 1 C5.99176154 4.1482329 6.14579138 5.63251419 4.91113281 8.74462891 C4.34749023 9.72866699 3.78384766 10.71270508 3.203125 11.7265625 C2.57881592 12.83265869 1.95450684 13.93875488 1.3112793 15.07836914 C0.62460314 16.26082165 -0.06249832 17.44302727 -0.75 18.625 C-1.44023007 19.83453028 -2.12926948 21.04474075 -2.81713867 22.25561523 C-4.20277948 24.68857743 -5.59697665 27.11628903 -6.99951172 29.53955078 C-8.80560558 32.66373608 -10.59565177 35.79633692 -12.37890625 38.93359375 C-13.35573065 40.6438237 -14.33352303 42.35350132 -15.3125 44.0625 C-15.76141602 44.84641113 -16.21033203 45.63032227 -16.67285156 46.43798828 C-19.76098252 51.76098252 -19.76098252 51.76098252 -22 54 C-24.625 53.625 -24.625 53.625 -27 53 C-27.78079785 50.23453498 -28.18952861 48.54598982 -27.23413086 45.79370117 C-26.81526611 45.05095947 -26.39640137 44.30821777 -25.96484375 43.54296875 C-25.49159668 42.68864258 -25.01834961 41.83431641 -24.53076172 40.95410156 C-23.74209717 39.58463379 -23.74209717 39.58463379 -22.9375 38.1875 C-22.40398926 37.23713867 -21.87047852 36.28677734 -21.32080078 35.30761719 C-19.56468969 32.19476457 -17.7847326 29.09652285 -16 26 C-15.36819824 24.89672363 -14.73639648 23.79344727 -14.08544922 22.65673828 C-11.02344203 17.31620793 -7.94572321 11.98473996 -4.8359375 6.671875 C-4.08642822 5.38941895 -4.08642822 5.38941895 -3.32177734 4.08105469 C-2 2 -2 2 0 0 Z " fill="#F0F0F0" transform="translate(375,253)"/>
<path d="M0 0 C1.36705078 0.17015625 1.36705078 0.17015625 2.76171875 0.34375 C3.69512231 3.87285447 4.00230184 5.77216861 2.56640625 9.18359375 C1.92960937 10.20582031 1.2928125 11.22804688 0.63671875 12.28125 C-0.10471045 13.50278778 -0.84414197 14.72553937 -1.58203125 15.94921875 C-1.9996875 16.63290527 -2.41734375 17.3165918 -2.84765625 18.02099609 C-5.6209965 22.65329229 -8.22457373 27.38393312 -10.86328125 32.09375 C-12.45636215 34.93117173 -14.05376155 37.76522043 -15.67285156 40.58789062 C-16.74054746 42.46751497 -17.78057606 44.36306025 -18.79589844 46.27148438 C-19.30024414 47.18736328 -19.80458984 48.10324219 -20.32421875 49.046875 C-20.76556152 49.87348633 -21.2069043 50.70009766 -21.66162109 51.55175781 C-23.23828125 53.34375 -23.23828125 53.34375 -25.79541016 53.73730469 C-28.23828125 53.34375 -28.23828125 53.34375 -30.23828125 51.34375 C-29.99618501 46.18407383 -27.81443574 42.31180987 -25.23828125 37.96875 C-24.41632422 36.5483752 -23.59471962 35.1277964 -22.7734375 33.70703125 C-22.14139404 32.62349365 -22.14139404 32.62349365 -21.49658203 31.51806641 C-19.89583867 28.75201666 -18.34393523 25.96037088 -16.79418945 23.16552734 C-15.32385201 20.52399119 -13.82772243 17.89754051 -12.32910156 15.27197266 C-11.59811094 13.97981422 -10.8761643 12.68250011 -10.16308594 11.38037109 C-9.14571381 9.52270407 -8.10166725 7.68260924 -7.05078125 5.84375 C-6.16326172 4.25046875 -6.16326172 4.25046875 -5.2578125 2.625 C-3.23828125 0.34375 -3.23828125 0.34375 0 0 Z " fill="#F0F0F0" transform="translate(364.23828125,245.65625)"/>
<path d="M0 0 C2.625 0.375 2.625 0.375 5 1 C5.99176154 4.1482329 6.14579138 5.63251419 4.91113281 8.74462891 C4.34749023 9.72866699 3.78384766 10.71270508 3.203125 11.7265625 C2.57881592 12.83265869 1.95450684 13.93875488 1.3112793 15.07836914 C0.62460314 16.26082165 -0.06249832 17.44302727 -0.75 18.625 C-1.44023007 19.83453028 -2.12926948 21.04474075 -2.81713867 22.25561523 C-4.20277948 24.68857743 -5.59697665 27.11628903 -6.99951172 29.53955078 C-8.80560558 32.66373608 -10.59565177 35.79633692 -12.37890625 38.93359375 C-13.35573065 40.6438237 -14.33352303 42.35350132 -15.3125 44.0625 C-15.76141602 44.84641113 -16.21033203 45.63032227 -16.67285156 46.43798828 C-19.76098252 51.76098252 -19.76098252 51.76098252 -22 54 C-24.625 53.625 -24.625 53.625 -27 53 C-28.07312687 49.72106444 -28.11609107 48.28718386 -26.8034668 45.04003906 C-26.19156494 43.95948242 -25.57966309 42.87892578 -24.94921875 41.765625 C-24.61937485 41.17427261 -24.28953094 40.58292023 -23.94969177 39.97364807 C-22.87616461 38.05755908 -21.78247802 36.15389818 -20.6875 34.25 C-19.94733683 32.94030033 -19.20824425 31.62999505 -18.47021484 30.3190918 C-16.65995855 27.11333621 -14.8321973 23.91806547 -12.99493408 20.72772217 C-12.0905256 19.15719945 -11.18936819 17.58480569 -10.28857422 16.01220703 C-2.57985205 2.57985205 -2.57985205 2.57985205 0 0 Z " fill="#F1F1F1" transform="translate(336,230)"/>
<path d="M0 0 C2.625 0.375 2.625 0.375 5 1 C6.13302783 3.76299769 6.04783191 4.87164795 4.98828125 7.71484375 C4.43527344 8.77832031 3.88226563 9.84179688 3.3125 10.9375 C3.00505859 11.53159668 2.69761719 12.12569336 2.38085938 12.73779297 C-2.04051284 21.15834302 -6.84127409 29.37954921 -11.61230469 37.60498047 C-12.83398859 39.71348137 -14.04795953 41.82610419 -15.2578125 43.94140625 C-15.87398438 45.01261719 -16.49015625 46.08382812 -17.125 47.1875 C-17.64320313 48.08855469 -18.16140625 48.98960937 -18.6953125 49.91796875 C-20 52 -20 52 -22 54 C-24.625 53.625 -24.625 53.625 -27 53 C-28.07312687 49.72106444 -28.11609107 48.28718386 -26.8034668 45.04003906 C-26.19156494 43.95948242 -25.57966309 42.87892578 -24.94921875 41.765625 C-24.61937485 41.17427261 -24.28953094 40.58292023 -23.94969177 39.97364807 C-22.87616461 38.05755908 -21.78247802 36.15389818 -20.6875 34.25 C-19.94733683 32.94030033 -19.20824425 31.62999505 -18.47021484 30.3190918 C-16.65995855 27.11333621 -14.8321973 23.91806547 -12.99493408 20.72772217 C-12.0905256 19.15719945 -11.18936819 17.58480569 -10.28857422 16.01220703 C-2.57985205 2.57985205 -2.57985205 2.57985205 0 0 Z " fill="#F0F0F0" transform="translate(297,207)"/>
<path d="M0 0 C2.35546875 0.54296875 2.35546875 0.54296875 4.35546875 2.54296875 C3.99819093 6.34110059 2.6520462 9.2261292 0.8359375 12.54296875 C0.05234863 13.98337524 0.05234863 13.98337524 -0.74707031 15.45288086 C-1.31135742 16.47260986 -1.87564453 17.49233887 -2.45703125 18.54296875 C-3.03291992 19.59427979 -3.60880859 20.64559082 -4.20214844 21.72875977 C-20.53435392 51.43279142 -20.53435392 51.43279142 -22.64453125 53.54296875 C-25.14453125 53.66796875 -25.14453125 53.66796875 -27.64453125 53.54296875 C-28.64453125 52.54296875 -28.64453125 52.54296875 -28.90380859 49.8762207 C-28.59535909 45.91081476 -27.44617764 43.66748063 -25.49609375 40.2109375 C-25.16780075 39.62090942 -24.83950775 39.03088135 -24.50126648 38.42297363 C-23.43684238 36.5179235 -22.35428218 34.6240071 -21.26953125 32.73046875 C-20.53207958 31.42659321 -19.79534695 30.12231075 -19.05932617 28.81762695 C-17.60231652 26.24009126 -16.13725388 23.66737343 -14.66650391 21.09765625 C-12.91806288 18.03647878 -11.21689272 14.95175508 -9.53125 11.85546875 C-8.6741418 10.31326553 -7.8161606 8.77154694 -6.95703125 7.23046875 C-6.58465332 6.53268311 -6.21227539 5.83489746 -5.82861328 5.1159668 C-3.29117306 0.67573568 -3.29117306 0.67573568 0 0 Z " fill="#F3F3F3" transform="translate(311.64453125,214.45703125)"/>
<path d="M0 0 C3.06881816 1.71904752 5.40357084 3.80714167 7 7 C7.50872093 13.10465114 7.06705978 16.11952826 3 21 C-1.02702057 23.68468038 -4.2684363 23.68187737 -9 23 C-12.47060168 20.93240751 -14.77725393 18.89055567 -16 15 C-16.45522199 9.99255812 -16.1111205 7.00001208 -13 3 C-9.49787598 -0.90621525 -4.90657328 -0.93377692 0 0 Z " fill="#F4F4F4" transform="translate(265,268)"/>
<path d="M0 0 C3.07061968 1.71368609 5.40450726 3.80901452 7 7 C7.79674298 13.71540516 7.79674298 13.71540516 5.73046875 17.046875 C3.65652551 19.48918286 1.88534982 21.55732509 -1 23 C-5.98109259 23.37593152 -9.05673864 23.1765161 -13 20 C-15.9522583 16.43692963 -16.47540662 13.41888674 -16.2890625 8.9296875 C-15.85655103 6.04238119 -14.84410875 4.23927491 -13 2 C-8.80072189 -0.5285015 -4.78657485 -0.83640841 0 0 Z " fill="#F4F4F4" transform="translate(344,315)"/>
<path d="M0 0 C0.33 0.66 0.66 1.32 1 2 C0.67 2.66 0.34 3.32 0 4 C0.66 4.33 1.32 4.66 2 5 C1.67 5.33 1.34 5.66 1 6 C1.99 6.66 2.98 7.32 4 8 C0.58575355 14.32764084 -2.85388668 20.64089875 -6.31884766 26.94091797 C-7.41063286 28.92756749 -8.49904745 30.91607447 -9.58349609 32.90673828 C-11.04010535 35.5718145 -12.51679758 38.22465397 -14 40.875 C-14.6657605 42.10440308 -14.6657605 42.10440308 -15.3449707 43.35864258 C-15.76738037 44.1039624 -16.18979004 44.84928223 -16.625 45.6171875 C-16.98851562 46.27315918 -17.35203125 46.92913086 -17.7265625 47.60498047 C-18.35691406 48.29551514 -18.35691406 48.29551514 -19 49 C-20.32 49 -21.64 49 -23 49 C-22.67 47.35 -22.34 45.7 -22 44 C-22.66 43.67 -23.32 43.34 -24 43 C-16.24220426 28.51989671 -8.33147263 14.15849457 0 0 Z " fill="#0D0D0D" transform="translate(315,221)"/>
<path d="M0 0 C2 1 2 1 3 3 C3.99 3.33 4.98 3.66 6 4 C5.63720947 4.52207031 5.27441895 5.04414063 4.90063477 5.58203125 C0.84501418 11.52654427 -2.66856062 17.65880745 -6.0625 24 C-7.07390112 25.87517135 -8.08561641 27.75017329 -9.09765625 29.625 C-9.57992676 30.52089844 -10.06219727 31.41679687 -10.55908203 32.33984375 C-12.67406363 36.24442516 -14.83206294 40.12462562 -17 44 C-17.13277344 43.37609375 -17.26554687 42.7521875 -17.40234375 42.109375 C-18.09918711 39.64992786 -19.09695363 38.65482293 -21 37 C-18.74521381 31.06723669 -15.6529976 25.62827974 -12.625 20.0625 C-12.0475 18.99064453 -11.47 17.91878906 -10.875 16.81445312 C-4.91540659 5.82730317 -4.91540659 5.82730317 -2 2 C-1.34 2 -0.68 2 0 2 C0 1.34 0 0.68 0 0 Z " fill="#0E0E0E" transform="translate(369,250)"/>
<path d="M0 0 C2 3 2 3 2 5 C2.66 5.33 3.32 5.66 4 6 C4.33 6.66 4.66 7.32 5 8 C3.76831055 10.67382812 3.76831055 10.67382812 1.88671875 14.03125 C1.39230034 14.91882996 1.39230034 14.91882996 0.88789368 15.82434082 C0.18791629 17.07723518 -0.51596137 18.32795714 -1.22338867 19.57666016 C-2.30553805 21.48770539 -3.37540849 23.40520985 -4.44335938 25.32421875 C-9.69271763 34.69271763 -9.69271763 34.69271763 -12 37 C-12.66 35.68 -13.32 34.36 -14 33 C-15.32 33.66 -16.64 34.32 -18 35 C-16.57486022 31.19383399 -14.82251197 27.74891976 -12.8125 24.21875 C-12.19632812 23.12949219 -11.58015625 22.04023438 -10.9453125 20.91796875 C-9 17.5 -9 17.5 -7.0546875 14.08203125 C-6.43851562 12.99277344 -5.82234375 11.90351563 -5.1875 10.78125 C-4.62417969 9.79189453 -4.06085938 8.80253906 -3.48046875 7.78320312 C-2.12354086 5.23225031 -1.01221957 2.70336691 0 0 Z " fill="#101010" transform="translate(303,210)"/>
<path d="M0 0 C0.68620031 1.32338632 1.34786461 2.65949948 2 4 C2.39968994 4.76860352 2.79937988 5.53720703 3.21118164 6.32910156 C4 9 4 9 3.20483398 11.47949219 C2.48275757 12.75034668 2.48275757 12.75034668 1.74609375 14.046875 C1.22080078 14.97371094 0.69550781 15.90054687 0.15429688 16.85546875 C-0.69551758 18.28826172 -0.69551758 18.28826172 -1.5625 19.75 C-2.10197266 20.72066406 -2.64144531 21.69132812 -3.19726562 22.69140625 C-7.31994511 29.80290404 -7.31994511 29.80290404 -10.69897461 30.78222656 C-11.45831299 30.8540918 -12.21765137 30.92595703 -13 31 C-13.33 30.34 -13.66 29.68 -14 29 C-13.36669922 27.1875 -13.36669922 27.1875 -12.3046875 25 C-11.92046631 24.19925049 -11.53624512 23.39850098 -11.14038086 22.57348633 C-10.72280518 21.72423584 -10.30522949 20.87498535 -9.875 20 C-9.46064697 19.14237061 -9.04629395 18.28474121 -8.61938477 17.40112305 C-5.79753989 11.57585948 -2.94796616 5.76260722 0 0 Z " fill="#F1F1F1" transform="translate(456,247)"/>
<path d="M0 0 C0.268125 0.598125 0.53625 1.19625 0.8125 1.8125 C1.98493467 3.97224808 3.19369282 5.35790256 5 7 C4.31292969 8.02480469 3.62585938 9.04960937 2.91796875 10.10546875 C2.00775046 11.46610433 1.09759767 12.82678373 0.1875 14.1875 C-0.26431641 14.86103516 -0.71613281 15.53457031 -1.18164062 16.22851562 C-3.54770752 19.76898069 -5.85026766 23.32188654 -8 27 C-9.32 26.34 -10.64 25.68 -12 25 C-11.4133247 21.24936435 -10.35059992 18.440724 -8.49609375 15.13671875 C-7.75649414 13.80737305 -7.75649414 13.80737305 -7.00195312 12.45117188 C-6.48568359 11.53916016 -5.96941406 10.62714844 -5.4375 9.6875 C-4.91736328 8.75615234 -4.39722656 7.82480469 -3.86132812 6.86523438 C-2.58023026 4.57336205 -1.29297895 2.28518387 0 0 Z " fill="#EEEEEE" transform="translate(259,136)"/>
<path d="M0 0 C0.66 0 1.32 0 2 0 C1.95875 0.78375 1.9175 1.5675 1.875 2.375 C1.71271266 5.16116119 1.71271266 5.16116119 4 7 C3.81315164 10.42555325 3.58794945 13.05928088 1.75 16 C0 17 0 17 -2.6875 16.6875 C-3.450625 16.460625 -4.21375 16.23375 -5 16 C-6.04769518 12.72520421 -6.13815174 11.32916541 -4.78515625 8.10546875 C-4.21667969 7.14253906 -3.64820313 6.17960937 -3.0625 5.1875 C-2.49660156 4.21167969 -1.93070312 3.23585938 -1.34765625 2.23046875 C-0.90292969 1.49441406 -0.45820313 0.75835937 0 0 Z " fill="#EDEDED" transform="translate(314,267)"/>
<path d="M0 0 C2 2 4 4 6 6 C3.03 11.28 0.06 16.56 -3 22 C-3.93612683 18.25549268 -4.05090402 17.18565342 -3.22265625 13.671875 C-3.03896484 12.87265625 -2.85527344 12.0734375 -2.66601562 11.25 C-2.46685547 10.425 -2.26769531 9.6 -2.0625 8.75 C-1.86720703 7.90953125 -1.67191406 7.0690625 -1.47070312 6.203125 C-0.98857714 4.13351102 -0.49536137 2.06648605 0 0 Z " fill="#EAEAEA" transform="translate(305,462)"/>
<path d="M0 0 C0 4.01094227 -1.76100999 5.74328725 -4 9 C-4.33 9.99 -4.66 10.98 -5 12 C-5.99 11.67 -6.98 11.34 -8 11 C-8 11.66 -8 12.32 -8 13 C-11.6854506 17.02049157 -15.82556637 20.49925018 -20 24 C-20.66 23.67 -21.32 23.34 -22 23 C-21.51120361 22.51644043 -21.02240723 22.03288086 -20.51879883 21.53466797 C-18.28067261 19.31747863 -16.04656653 17.09627956 -13.8125 14.875 C-12.65911133 13.73417969 -12.65911133 13.73417969 -11.48242188 12.5703125 C-7.42708099 8.53237652 -3.5678846 4.4759434 0 0 Z " fill="#D7D7D7" transform="translate(484,463)"/>
<path d="M0 0 C0.99 0.495 0.99 0.495 2 1 C2 1.66 2 2.32 2 3 C1.34 3 0.68 3 0 3 C0 2.01 0 1.02 0 0 Z M-2 4 C-0.8125 5.5625 -0.8125 5.5625 0 8 C-1.375 11.75 -1.375 11.75 -3 15 C-4.33333333 15 -5.66666667 15 -7 15 C-6.125 8.25 -6.125 8.25 -5 6 C-4.01 6 -3.02 6 -2 6 C-2 5.34 -2 4.68 -2 4 Z " fill="#F5F5F5" transform="translate(355,289)"/>
<path d="M0 0 C1.49403054 2.98806107 2.79310745 5.89656201 4 9 C3.34 9.66 2.68 10.32 2 11 C1.67 10.01 1.34 9.02 1 8 C0.34 8 -0.32 8 -1 8 C-1 8.66 -1 9.32 -1 10 C-1.99 10.495 -1.99 10.495 -3 11 C-3.33 11.99 -3.66 12.98 -4 14 C-4.66 13.67 -5.32 13.34 -6 13 C-4.02 8.71 -2.04 4.42 0 0 Z " fill="#E3E3E3" transform="translate(456,247)"/>
<path d="M0 0 C0.66 0 1.32 0 2 0 C2.6875 1.8125 2.6875 1.8125 3 4 C1.6875 5.5625 1.6875 5.5625 0 7 C-0.99 8.485 -0.99 8.485 -2 10 C-2.33 9.67 -2.66 9.34 -3 9 C-3.66 9.66 -4.32 10.32 -5 11 C-5.66 11 -6.32 11 -7 11 C-5.25731793 7.03935893 -2.85325271 3.25563451 0 0 Z " fill="#EAEAEA" transform="translate(493,451)"/>
<path d="M0 0 C2.97 0.495 2.97 0.495 6 1 C2.91709845 5.22797927 2.91709845 5.22797927 1 7 C-1.8125 7.375 -1.8125 7.375 -4 7 C-2.68 4.69 -1.36 2.38 0 0 Z " fill="#EEEEEE" transform="translate(304,112)"/>
<path d="M0 0 C1.5625 1.8125 1.5625 1.8125 3 4 C2 7 2 7 -1 9 C-2.67423683 10.32381517 -4.34211215 11.65576661 -6 13 C-4.58707905 8.1725201 -2.57025846 4.2837641 0 0 Z " fill="#E9E9E9" transform="translate(197,293)"/>
<path d="M0 0 C3.71279784 1.44386582 4.9486443 3.12236392 6.75 6.625 C7.17796875 7.44226563 7.6059375 8.25953125 8.046875 9.1015625 C8.51867187 10.04128906 8.51867187 10.04128906 9 11 C7.02 11.99 7.02 11.99 5 13 C4.54625 11.783125 4.0925 10.56625 3.625 9.3125 C2.45547059 6.1919073 1.25437562 3.08769384 0 0 Z " fill="#EDEDED" transform="translate(476,161)"/>
<path d="M0 0 C0.99 0.66 1.98 1.32 3 2 C3.97419067 6.87095335 1.49764545 10.01937757 -1 14 C-2.13732426 10.59598052 -1.83989957 8.22543336 -1.0625 4.75 C-0.86785156 3.85796875 -0.67320312 2.9659375 -0.47265625 2.046875 C-0.31667969 1.37140625 -0.16070312 0.6959375 0 0 Z " fill="#D2D2D2" transform="translate(303,470)"/>
<path d="M0 0 C0.33 0.66 0.66 1.32 1 2 C0.67 2.66 0.34 3.32 0 4 C0.66 4.33 1.32 4.66 2 5 C1.67 5.33 1.34 5.66 1 6 C1.99 6.66 2.98 7.32 4 8 C3.01 9.32 2.02 10.64 1 12 C0.34 11.34 -0.32 10.68 -1 10 C-1.33 10 -1.66 10 -2 10 C-2.25 3.375 -2.25 3.375 0 0 Z " fill="#151515" transform="translate(315,221)"/>
<path d="M0 0 C0.66 0 1.32 0 2 0 C3.06351675 3.38391693 3.21442982 4.5804634 1.5625 7.8125 C1.046875 8.534375 0.53125 9.25625 0 10 C-1.32 9.34 -2.64 8.68 -4 8 C-2.66666667 5.33333333 -1.33333333 2.66666667 0 0 Z " fill="#F5F5F5" transform="translate(251,153)"/>
<path d="M0 0 C1.32 0.99 2.64 1.98 4 3 C0.04 4.98 0.04 4.98 -4 7 C-4 5.33333333 -4 3.66666667 -4 2 C-2.68 1.34 -1.36 0.68 0 0 Z " fill="#EEEEEE" transform="translate(253,408)"/>
<path d="M0 0 C0 4.01094227 -1.76100999 5.74328725 -4 9 C-4.33 9.99 -4.66 10.98 -5 12 C-5.66 11.67 -6.32 11.34 -7 11 C-6.40716379 7.60807637 -5.23256811 5.7892243 -2.9375 3.25 C-2.38964844 2.63640625 -1.84179688 2.0228125 -1.27734375 1.390625 C-0.85582031 0.93171875 -0.43429687 0.4728125 0 0 Z " fill="#E3E3E3" transform="translate(484,463)"/>
<path d="M0 0 C-2.09782787 2.09782787 -3.3799207 2.6509396 -6.125 3.625 C-6.84945312 3.88539063 -7.57390625 4.14578125 -8.3203125 4.4140625 C-9.15175781 4.70410156 -9.15175781 4.70410156 -10 5 C-9.64453125 3.08203125 -9.64453125 3.08203125 -9 1 C-5.6868424 -0.8804408 -3.58825658 -1.32898392 0 0 Z " fill="#F1F1F1" transform="translate(221,403)"/>
<path d="M0 0 C1.65 0.33 3.3 0.66 5 1 C4.67 2.32 4.34 3.64 4 5 C2.02 5.33 0.04 5.66 -2 6 C-1.34 4.02 -0.68 2.04 0 0 Z " fill="#EEEEEE" transform="translate(286,255)"/>
<path d="M0 0 C0.66 0.33 1.32 0.66 2 1 C1.21625 1.4125 0.4325 1.825 -0.375 2.25 C-3.05891656 4.0392777 -3.88098949 5.04988139 -5 8 C-6.65 8 -8.3 8 -10 8 C-6.91367389 4.7373124 -4.06516496 1.97764782 0 0 Z " fill="#EEEEEE" transform="translate(464,486)"/>
<path d="M0 0 C0.66 0.99 1.32 1.98 2 3 C1.375 6.125 1.375 6.125 0 9 C-2.125 9.875 -2.125 9.875 -4 10 C-2.8905928 6.51329166 -1.73662334 3.22515763 0 0 Z " fill="#E5E5E5" transform="translate(451,342)"/>
<path d="M0 0 C1.10153804 3.30461413 0.95317786 3.98668832 -0.1875 7.125 C-0.42855469 7.82882812 -0.66960937 8.53265625 -0.91796875 9.2578125 C-2 11 -2 11 -6 12 C-4.02 8.04 -2.04 4.08 0 0 Z " fill="#1A1A1A" transform="translate(308,264)"/>
<path d="M0 0 C0.66 1.32 1.32 2.64 2 4 C1.01 4.99 0.02 5.98 -1 7 C-2.32 6.01 -3.64 5.02 -5 4 C-3.74458443 1.48916886 -2.49936512 1.12874554 0 0 Z " fill="#EDEDED" transform="translate(462,106)"/>
<path d="M0 0 C0.99 0.99 1.98 1.98 3 3 C3 3.66 3 4.32 3 5 C2.01 5 1.02 5 0 5 C0 5.66 0 6.32 0 7 C-0.66 7 -1.32 7 -2 7 C-2 7.66 -2 8.32 -2 9 C-2.66 8.67 -3.32 8.34 -4 8 C-2.68 5.36 -1.36 2.72 0 0 Z " fill="#1B1B1B" transform="translate(324,235)"/>
<path d="M0 0 C0.66 0 1.32 0 2 0 C2.185625 1.2065625 2.185625 1.2065625 2.375 2.4375 C2.58125 3.283125 2.7875 4.12875 3 5 C3.66 5.33 4.32 5.66 5 6 C4.67 6.66 4.34 7.32 4 8 C2.0625 7.25 2.0625 7.25 0 6 C-0.8125 4 -0.8125 4 -1 2 C-0.67 1.34 -0.34 0.68 0 0 Z " fill="#E2E2E2" transform="translate(278,152)"/>
<path d="M0 0 C0.598125 0.495 1.19625 0.99 1.8125 1.5 C3.97029994 3.28276418 3.97029994 3.28276418 7 3 C6.67 3.99 6.34 4.98 6 6 C4.35 5.67 2.7 5.34 1 5 C0.67 3.35 0.34 1.7 0 0 Z " fill="#E7E7E7" transform="translate(347,301)"/>
<path d="M0 0 C1.32 0.33 2.64 0.66 4 1 C4 1.66 4 2.32 4 3 C4.66 3 5.32 3 6 3 C5.67 3.99 5.34 4.98 5 6 C2.69 5.34 0.38 4.68 -2 4 C-1.34 2.68 -0.68 1.36 0 0 Z " fill="#131313" transform="translate(350,234)"/>
<path d="M0 0 C2.51083114 1.25541557 2.87125446 2.50063488 4 5 C2.1875 5.6875 2.1875 5.6875 0 6 C-1.75 4.5625 -1.75 4.5625 -3 3 C-2.01 2.01 -1.02 1.02 0 0 Z " fill="#ECECEC" transform="translate(257,121)"/>
<path d="M0 0 C1.65 0 3.3 0 5 0 C5.33 0.99 5.66 1.98 6 3 C4.02 3.99 4.02 3.99 2 5 C1.01 4.34 0.02 3.68 -1 3 C-0.67 2.01 -0.34 1.02 0 0 Z " fill="#101010" transform="translate(328,121)"/>
<path d="M0 0 C1.32 0.33 2.64 0.66 4 1 C5.25 3.5625 5.25 3.5625 6 6 C5.34 6.66 4.68 7.32 4 8 C2.68 5.36 1.36 2.72 0 0 Z " fill="#EDEDED" transform="translate(504,164)"/>
<path d="M0 0 C3.25696479 0.41755959 4.63443291 0.63443291 7 3 C6.67 3.66 6.34 4.32 6 5 C3.08482708 3.92598892 1.22189824 3.22189824 -1 1 C-0.67 0.67 -0.34 0.34 0 0 Z " fill="#E0E0E0" transform="translate(430,162)"/>
<path d="M0 0 C1.65 0.33 3.3 0.66 5 1 C3.93453047 3.13093906 2.70840281 4.36587557 1 6 C0.01 5.01 -0.98 4.02 -2 3 C-1.34 2.01 -0.68 1.02 0 0 Z " fill="#EDEDED" transform="translate(120,162)"/>
<path d="M0 0 C0.99 0.33 1.98 0.66 3 1 C3 1.99 3 2.98 3 4 C3.99 4.33 4.98 4.66 6 5 C6 5.66 6 6.32 6 7 C3.5625 6.3125 3.5625 6.3125 1 5 C0.1875 2.375 0.1875 2.375 0 0 Z " fill="#191919" transform="translate(223,143)"/>
<path d="M0 0 C0.88492145 2.47778006 1.11637742 3.66056586 0.25 6.1875 C-1 8 -1 8 -4 9 C-2.80100302 5.9168649 -1.52299523 2.93720508 0 0 Z " fill="#E3E3E3" transform="translate(485,267)"/>
<path d="M0 0 C1 4 1 4 1 6 C-0.65 6.66 -2.3 7.32 -4 8 C-2.68 5.36 -1.36 2.72 0 0 Z " fill="#161616" transform="translate(348,255)"/>
<path d="M0 0 C0.87491004 2.4497481 1.12900603 3.63448293 0.25 6.125 C-1 8 -1 8 -4 10 C-3.29445932 6.33118845 -1.72264494 3.29549466 0 0 Z " fill="#DBDBDB" transform="translate(251,150)"/>
<path d="M0 0 C1.32 0.33 2.64 0.66 4 1 C2.68 2.65 1.36 4.3 0 6 C-0.66 5.67 -1.32 5.34 -2 5 C-1.34 3.35 -0.68 1.7 0 0 Z " fill="#EFEFEF" transform="translate(118,128)"/>
<path d="M0 0 C0 1.65 0 3.3 0 5 C-1.9375 4.625 -1.9375 4.625 -4 4 C-4.33 3.34 -4.66 2.68 -5 2 C-2 0 -2 0 0 0 Z " fill="#E8E8E8" transform="translate(439,506)"/>
<path d="M0 0 C0.99 0.66 1.98 1.32 3 2 C2.67 2.99 2.34 3.98 2 5 C0.35 5 -1.3 5 -3 5 C-2.01 3.35 -1.02 1.7 0 0 Z " fill="#F4F4F4" transform="translate(453,494)"/>
<path d="M0 0 C0.99 0.66 1.98 1.32 3 2 C2.319375 2.61875 2.319375 2.61875 1.625 3.25 C-0.05950374 5.06408095 -0.99265971 6.75285627 -2 9 C-2.66 9 -3.32 9 -4 9 C-2.80100302 5.9168649 -1.52299523 2.93720508 0 0 Z " fill="#DCDCDC" transform="translate(419,415)"/>
<path d="M0 0 C1.65 1.32 3.3 2.64 5 4 C4.67 4.99 4.34 5.98 4 7 C2.35 6.01 0.7 5.02 -1 4 C-0.67 2.68 -0.34 1.36 0 0 Z " fill="#121212" transform="translate(250,285)"/>
<path d="M0 0 C3 1 3 1 4 3 C-0.75 5.875 -0.75 5.875 -3 7 C-1.125 2.25 -1.125 2.25 0 0 Z " fill="#161616" transform="translate(341,236)"/>
<path d="M0 0 C1.9375 0.8125 1.9375 0.8125 4 2 C4.33 2.99 4.66 3.98 5 5 C3.68 5 2.36 5 1 5 C0.67 3.35 0.34 1.7 0 0 Z " fill="#EFEFEF" transform="translate(498,153)"/>
</svg>
