<svg xmlns="http://www.w3.org/2000/svg" version="1.1" xmlns:xlink="http://www.w3.org/1999/xlink" xmlns:svgjs="http://svgjs.dev/svgjs" width="1500" height="1500" viewBox="0 0 1500 1500"><rect width="1500" height="1500" fill="#ffffff"></rect><g transform="matrix(0.6666666666666666,0,0,0.6666666666666666,249.39393939393938,438.5856950067477)"><svg viewBox="0 0 396 247" data-background-color="#ffffff" preserveAspectRatio="xMidYMid meet" height="935" width="1500" xmlns="http://www.w3.org/2000/svg" xmlns:xlink="http://www.w3.org/1999/xlink"><g id="tight-bounds" transform="matrix(1,0,0,1,0.2400000000000091,-0.09999999999999432)"><svg viewBox="0 0 395.52 247.2" height="247.2" width="395.52"><g><svg></svg></g><g><svg viewBox="0 0 395.52 247.2" height="247.2" width="395.52"><g transform="matrix(1,0,0,1,75.54432,100.82974906509348)"><svg viewBox="0 0 244.43135999999998 45.540501869813035" height="45.540501869813035" width="244.43135999999998"><g><svg viewBox="0 0 307.6380349160679 57.31666552246323" height="45.540501869813035" width="244.43135999999998"><g transform="matrix(1,0,0,1,63.2066749160679,16.183516613879355)"><svg viewBox="0 0 244.43135999999998 24.949632294704525" height="24.949632294704525" width="244.43135999999998"><g id="textblocktransform"><svg viewBox="0 0 244.43135999999998 24.949632294704525" height="24.949632294704525" width="244.43135999999998" id="textblock"><g><svg viewBox="0 0 244.43135999999998 24.949632294704525" height="24.949632294704525" width="244.43135999999998"><g transform="matrix(1,0,0,1,0,0)"><svg width="244.43135999999998" viewBox="3.15 -39.2 390.86 39.900000000000006" height="24.949632294704525" data-palette-color="#130912"><path d="M12.8-35.95L12.8-35.95Q15.3-35.95 16.6-35.38 17.9-34.8 18.9-34.1L18.9-34.1Q19.5-33.75 19.88-33.58 20.25-33.4 20.6-33.4L20.6-33.4Q21.4-33.4 21.7-35.6L21.7-35.6 22.85-35.6Q22.8-34.75 22.73-33.58 22.65-32.4 22.63-30.48 22.6-28.55 22.6-25.4L22.6-25.4 21.45-25.4Q21.3-27.8 20.4-30 19.5-32.2 17.78-33.6 16.05-35 13.25-35L13.25-35Q10.6-35 8.88-33.4 7.15-31.8 7.15-29.2L7.15-29.2Q7.15-26.95 8.3-25.43 9.45-23.9 11.38-22.68 13.3-21.45 15.55-20.05L15.55-20.05Q18.15-18.45 20.18-16.88 22.2-15.3 23.38-13.4 24.55-11.5 24.55-8.8L24.55-8.8Q24.55-5.6 23.1-3.5 21.65-1.4 19.25-0.35 16.85 0.7 13.95 0.7L13.95 0.7Q11.3 0.7 9.75 0.1 8.2-0.5 7.1-1.15L7.1-1.15Q6-1.85 5.4-1.85L5.4-1.85Q4.6-1.85 4.3 0.35L4.3 0.35 3.15 0.35Q3.25-0.7 3.28-2.13 3.3-3.55 3.33-5.85 3.35-8.15 3.35-11.65L3.35-11.65 4.5-11.65Q4.7-8.65 5.63-6.05 6.55-3.45 8.47-1.88 10.4-0.3 13.6-0.3L13.6-0.3Q16.05-0.3 18.07-1.88 20.1-3.45 20.1-6.95L20.1-6.95Q20.1-10 17.95-12 15.8-14 12.3-16.1L12.3-16.1Q9.95-17.55 7.9-19.05 5.85-20.55 4.63-22.53 3.4-24.5 3.4-27.3L3.4-27.3Q3.4-30.25 4.73-32.18 6.05-34.1 8.2-35.02 10.35-35.95 12.8-35.95ZM35.15 0.35L35.15 0.35Q31.9 0.35 30.42-1.28 28.95-2.9 28.95-5.6L28.95-5.6Q28.95-7.7 29.97-9.08 31-10.45 32.6-11.33 34.2-12.2 35.97-12.83 37.75-13.45 39.35-14.05 40.95-14.65 41.97-15.4 43-16.15 43-17.3L43-17.3 43-20.4Q43-22.5 42.37-23.6 41.75-24.7 40.7-25.08 39.65-25.45 38.35-25.45L38.35-25.45Q37.1-25.45 35.67-25.1 34.25-24.75 33.4-23.65L33.4-23.65Q34.35-23.45 35.05-22.65 35.75-21.85 35.75-20.6L35.75-20.6Q35.75-19.35 34.95-18.63 34.15-17.9 32.9-17.9L32.9-17.9Q31.45-17.9 30.77-18.82 30.1-19.75 30.1-20.9L30.1-20.9Q30.1-22.2 30.75-23 31.4-23.8 32.4-24.5L32.4-24.5Q33.55-25.3 35.37-25.88 37.2-26.45 39.5-26.45L39.5-26.45Q41.55-26.45 43-25.98 44.45-25.5 45.4-24.6L45.4-24.6Q46.7-23.4 47.1-21.68 47.5-19.95 47.5-17.55L47.5-17.55 47.5-3.65Q47.5-2.45 47.85-1.88 48.2-1.3 49.05-1.3L49.05-1.3Q49.75-1.3 50.27-1.6 50.8-1.9 51.3-2.35L51.3-2.35 51.85-1.5Q50.8-0.7 49.85-0.18 48.9 0.35 47.3 0.35L47.3 0.35Q44.7 0.35 43.85-1 43-2.35 43-4.1L43-4.1Q41.4-1.45 39.37-0.55 37.35 0.35 35.15 0.35ZM37.35-1.65L37.35-1.65Q38.85-1.65 40.3-2.53 41.75-3.4 43-5.45L43-5.45 43-15.25Q42.25-14.15 40.67-13.5 39.1-12.85 37.42-12.08 35.75-11.3 34.55-9.98 33.35-8.65 33.35-6.2L33.35-6.2Q33.35-3.9 34.5-2.78 35.65-1.65 37.35-1.65ZM65.7-39.1L65.7-39.1Q67.09-39.1 68.17-38.73 69.25-38.35 70.05-37.75L70.05-37.75Q70.8-37.15 71.2-36.35 71.59-35.55 71.59-34.65L71.59-34.65Q71.59-33.5 70.84-32.75 70.09-32 68.95-32L68.95-32Q67.84-32 67.02-32.73 66.2-33.45 66.2-34.7L66.2-34.7Q66.2-35.75 66.77-36.4 67.34-37.05 68.3-37.25L68.3-37.25Q68.15-37.7 67.52-38.02 66.9-38.35 65.84-38.35L65.84-38.35Q64.7-38.35 63.87-37.85 63.05-37.35 62.6-36.5L62.6-36.5Q62-35.45 61.85-33.38 61.7-31.3 61.7-27L61.7-27 61.7-25.7 67.05-25.7 67.05-24.7 61.7-24.7 61.7-5.15Q61.7-2.7 63.12-1.88 64.55-1.05 67-1.05L67-1.05 67 0Q65.84-0.05 63.75-0.13 61.65-0.2 59.3-0.2L59.3-0.2Q57.6-0.2 55.92-0.13 54.25-0.05 53.4 0L53.4 0 53.4-1.05Q55.45-1.05 56.32-1.8 57.2-2.55 57.2-4.65L57.2-4.65 57.2-24.7 53.2-24.7 53.2-25.7 57.2-25.7Q57.2-30.15 57.77-32.52 58.35-34.9 59.75-36.6L59.75-36.6Q60.75-37.75 62.3-38.43 63.85-39.1 65.7-39.1ZM76.64 0.35L76.64 0.35Q73.39 0.35 71.92-1.28 70.44-2.9 70.44-5.6L70.44-5.6Q70.44-7.7 71.47-9.08 72.49-10.45 74.09-11.33 75.69-12.2 77.47-12.83 79.24-13.45 80.84-14.05 82.44-14.65 83.47-15.4 84.49-16.15 84.49-17.3L84.49-17.3 84.49-20.4Q84.49-22.5 83.87-23.6 83.24-24.7 82.19-25.08 81.14-25.45 79.84-25.45L79.84-25.45Q78.59-25.45 77.17-25.1 75.74-24.75 74.89-23.65L74.89-23.65Q75.84-23.45 76.54-22.65 77.24-21.85 77.24-20.6L77.24-20.6Q77.24-19.35 76.44-18.63 75.64-17.9 74.39-17.9L74.39-17.9Q72.94-17.9 72.27-18.82 71.59-19.75 71.59-20.9L71.59-20.9Q71.59-22.2 72.24-23 72.89-23.8 73.89-24.5L73.89-24.5Q75.04-25.3 76.87-25.88 78.69-26.45 80.99-26.45L80.99-26.45Q83.04-26.45 84.49-25.98 85.94-25.5 86.89-24.6L86.89-24.6Q88.19-23.4 88.59-21.68 88.99-19.95 88.99-17.55L88.99-17.55 88.99-3.65Q88.99-2.45 89.34-1.88 89.69-1.3 90.54-1.3L90.54-1.3Q91.24-1.3 91.77-1.6 92.29-1.9 92.79-2.35L92.79-2.35 93.34-1.5Q92.29-0.7 91.34-0.18 90.39 0.35 88.79 0.35L88.79 0.35Q86.19 0.35 85.34-1 84.49-2.35 84.49-4.1L84.49-4.1Q82.89-1.45 80.87-0.55 78.84 0.35 76.64 0.35ZM78.84-1.65L78.84-1.65Q80.34-1.65 81.79-2.53 83.24-3.4 84.49-5.45L84.49-5.45 84.49-15.25Q83.74-14.15 82.17-13.5 80.59-12.85 78.92-12.08 77.24-11.3 76.04-9.98 74.84-8.65 74.84-6.2L74.84-6.2Q74.84-3.9 75.99-2.78 77.14-1.65 78.84-1.65ZM110.39-26.45L110.39-26.45Q111.74-26.45 112.77-25.9 113.79-25.35 114.37-24.48 114.94-23.6 114.94-22.5L114.94-22.5Q114.94-21.25 114.17-20.3 113.39-19.35 112.09-19.35L112.09-19.35Q111.04-19.35 110.24-20.03 109.44-20.7 109.44-21.95L109.44-21.95Q109.44-22.9 109.97-23.58 110.49-24.25 111.14-24.65L111.14-24.65Q110.79-25.15 110.09-25.15L110.09-25.15Q107.99-25.15 106.44-23.58 104.89-22 104.02-19.8 103.14-17.6 103.14-15.75L103.14-15.75 103.14-5.15Q103.14-2.7 104.57-1.88 105.99-1.05 108.44-1.05L108.44-1.05 108.44 0Q107.29-0.05 105.19-0.13 103.09-0.2 100.74-0.2L100.74-0.2Q99.04-0.2 97.37-0.13 95.69-0.05 94.84 0L94.84 0 94.84-1.05Q96.89-1.05 97.77-1.8 98.64-2.55 98.64-4.65L98.64-4.65 98.64-20.3Q98.64-22.55 97.84-23.63 97.04-24.7 94.84-24.7L94.84-24.7 94.84-25.75Q96.44-25.6 97.94-25.6L97.94-25.6Q99.39-25.6 100.72-25.78 102.04-25.95 103.14-26.3L103.14-26.3 103.14-20.05Q103.69-21.5 104.72-22.98 105.74-24.45 107.19-25.45 108.64-26.45 110.39-26.45ZM122.79-38.25L122.79-38.25Q124.09-38.25 125.04-37.3 125.99-36.35 125.99-35.05L125.99-35.05Q125.99-33.75 125.04-32.8 124.09-31.85 122.79-31.85L122.79-31.85Q121.49-31.85 120.54-32.8 119.59-33.75 119.59-35.05L119.59-35.05Q119.59-36.35 120.54-37.3 121.49-38.25 122.79-38.25ZM125.39-26.3L125.39-26.3 125.39-4.65Q125.39-2.55 126.26-1.8 127.14-1.05 129.19-1.05L129.19-1.05 129.19 0Q128.34-0.05 126.61-0.13 124.89-0.2 123.14-0.2L123.14-0.2Q121.44-0.2 119.69-0.13 117.94-0.05 117.09 0L117.09 0 117.09-1.05Q119.14-1.05 120.01-1.8 120.89-2.55 120.89-4.65L120.89-4.65 120.89-20.3Q120.89-22.55 120.09-23.63 119.29-24.7 117.09-24.7L117.09-24.7 117.09-25.75Q118.69-25.6 120.19-25.6L120.19-25.6Q121.64-25.6 122.96-25.78 124.29-25.95 125.39-26.3ZM157.18-35.65L157.18-35.65 169.38-4.2Q170.13-2.3 171.08-1.68 172.03-1.05 172.83-1L172.83-1 172.83 0Q171.83-0.1 170.38-0.13 168.93-0.15 167.48-0.15L167.48-0.15Q165.53-0.15 163.83-0.13 162.13-0.1 161.08 0L161.08 0 161.08-1Q163.63-1.1 164.33-1.88 165.03-2.65 164.03-5.2L164.03-5.2 154.73-30.05 155.53-30.7 146.83-8.1Q145.78-5.4 145.83-3.88 145.88-2.35 146.98-1.7 148.08-1.05 150.18-1L150.18-1 150.18 0Q148.78-0.1 147.26-0.13 145.73-0.15 144.43-0.15L144.43-0.15Q143.18-0.15 142.31-0.13 141.43-0.1 140.68 0L140.68 0 140.68-1Q141.68-1.25 142.73-2.18 143.78-3.1 144.63-5.35L144.63-5.35 156.38-35.65Q156.58-35.65 156.78-35.65 156.98-35.65 157.18-35.65ZM148.88-14.4L163.28-14.4 163.28-13.4 148.38-13.4 148.88-14.4ZM196.73-39.2L196.73-39.2 196.73-5.45Q196.73-3.2 197.56-2.13 198.38-1.05 200.53-1.05L200.53-1.05 200.53 0Q198.98-0.15 197.43-0.15L197.43-0.15Q195.98-0.15 194.66 0 193.33 0.15 192.23 0.55L192.23 0.55 192.23-33.2Q192.23-35.45 191.43-36.52 190.63-37.6 188.43-37.6L188.43-37.6 188.43-38.65Q190.03-38.5 191.53-38.5L191.53-38.5Q192.98-38.5 194.31-38.68 195.63-38.85 196.73-39.2ZM186.23-26.45L186.23-26.45Q188.43-26.45 190.36-25.4 192.28-24.35 192.93-21.8L192.93-21.8 192.28-21.3Q191.58-23.4 190.11-24.35 188.63-25.3 186.63-25.3L186.63-25.3Q183.68-25.3 181.71-22.25 179.73-19.2 179.78-12.85L179.78-12.85Q179.78-8.8 180.56-6.13 181.33-3.45 182.86-2.13 184.38-0.8 186.58-0.8L186.58-0.8Q188.68-0.8 190.38-2.6 192.08-4.4 192.43-7.9L192.43-7.9 193.03-7.2Q192.63-3.4 190.61-1.35 188.58 0.7 185.13 0.7L185.13 0.7Q182.03 0.7 179.71-0.8 177.38-2.3 176.16-5.3 174.93-8.3 174.93-12.85L174.93-12.85Q174.93-17.4 176.51-20.43 178.08-23.45 180.66-24.95 183.23-26.45 186.23-26.45ZM225.88-25.75L225.88-25.75 225.88-24.75Q224.93-24.65 224.13-23.9 223.33-23.15 222.63-21.25L222.63-21.25 214.43 0.25Q214.23 0.25 214.03 0.25 213.83 0.25 213.58 0.25L213.58 0.25 204.38-21.9Q203.58-23.85 202.8-24.28 202.03-24.7 201.48-24.7L201.48-24.7 201.48-25.75Q202.48-25.7 203.55-25.63 204.63-25.55 205.88-25.55L205.88-25.55Q207.43-25.55 209.15-25.6 210.88-25.65 212.38-25.75L212.38-25.75 212.38-24.7Q211.13-24.7 210.15-24.53 209.18-24.35 208.9-23.55 208.63-22.75 209.38-20.8L209.38-20.8 215.63-5.35 215.33-5.1 221.03-20.05Q221.98-22.55 221.25-23.55 220.53-24.55 217.88-24.75L217.88-24.75 217.88-25.75Q219.18-25.7 220.05-25.65 220.93-25.6 222.08-25.6L222.08-25.6Q223.23-25.6 224.15-25.65 225.08-25.7 225.88-25.75ZM239.18-26.45L239.18-26.45Q243.58-26.45 246.05-23.78 248.53-21.1 248.53-15.45L248.53-15.45 230.88-15.45 230.83-16.4 243.73-16.4Q243.83-18.85 243.33-20.93 242.83-23 241.75-24.25 240.68-25.5 238.98-25.5L238.98-25.5Q236.68-25.5 234.9-23.2 233.13-20.9 232.78-15.9L232.78-15.9 232.93-15.7Q232.83-14.95 232.78-14.05 232.73-13.15 232.73-12.25L232.73-12.25Q232.73-8.85 233.83-6.4 234.93-3.95 236.7-2.68 238.48-1.4 240.38-1.4L240.38-1.4Q242.63-1.4 244.53-2.5 246.43-3.6 247.73-6.4L247.73-6.4 248.73-6Q248.18-4.35 246.93-2.8 245.68-1.25 243.78-0.28 241.88 0.7 239.38 0.7L239.38 0.7Q235.78 0.7 233.2-0.95 230.63-2.6 229.25-5.53 227.88-8.45 227.88-12.25L227.88-12.25Q227.88-16.65 229.28-19.83 230.68-23 233.23-24.73 235.78-26.45 239.18-26.45ZM269.12-26.45L269.12-26.45Q271.02-26.45 272.3-25.95 273.57-25.45 274.42-24.55L274.42-24.55Q275.37-23.55 275.77-22.05 276.17-20.55 276.17-18L276.17-18 276.17-4.65Q276.17-2.55 277.05-1.8 277.92-1.05 279.97-1.05L279.97-1.05 279.97 0Q279.12-0.05 277.37-0.13 275.62-0.2 273.97-0.2L273.97-0.2Q272.32-0.2 270.75-0.13 269.17-0.05 268.37 0L268.37 0 268.37-1.05Q270.17-1.05 270.92-1.8 271.67-2.55 271.67-4.65L271.67-4.65 271.67-19.1Q271.67-20.65 271.42-21.95 271.17-23.25 270.3-24.05 269.42-24.85 267.62-24.85L267.62-24.85Q264.47-24.85 262.55-22.23 260.62-19.6 260.62-15.75L260.62-15.75 260.62-4.65Q260.62-2.55 261.37-1.8 262.12-1.05 263.92-1.05L263.92-1.05 263.92 0Q263.12-0.05 261.55-0.13 259.97-0.2 258.32-0.2L258.32-0.2Q256.67-0.2 254.92-0.13 253.17-0.05 252.32 0L252.32 0 252.32-1.05Q254.37-1.05 255.25-1.8 256.12-2.55 256.12-4.65L256.12-4.65 256.12-20.3Q256.12-22.55 255.32-23.63 254.52-24.7 252.32-24.7L252.32-24.7 252.32-25.75Q253.92-25.6 255.42-25.6L255.42-25.6Q256.87-25.6 258.2-25.78 259.52-25.95 260.62-26.3L260.62-26.3 260.62-20.4Q261.92-23.8 264.25-25.13 266.57-26.45 269.12-26.45ZM290.22-34.05L290.22-34.05 290.22-25.7 297.62-25.7 297.62-24.7 290.22-24.7 290.22-5.35Q290.22-3 291.07-2.05 291.92-1.1 293.42-1.1L293.42-1.1Q294.92-1.1 296.02-2.33 297.12-3.55 297.92-6.45L297.92-6.45 298.92-6.2Q298.42-3.3 296.95-1.3 295.47 0.7 292.42 0.7L292.42 0.7Q290.72 0.7 289.62 0.28 288.52-0.15 287.67-0.95L287.67-0.95Q286.57-2.1 286.15-3.7 285.72-5.3 285.72-7.95L285.72-7.95 285.72-24.7 280.92-24.7 280.92-25.7 285.72-25.7 285.72-33.35Q286.97-33.4 288.12-33.55 289.27-33.7 290.22-34.05ZM322.57-26.3L322.57-26.3 322.57-5.4Q322.57-3.15 323.39-2.08 324.22-1 326.37-1L326.37-1 326.37 0.05Q324.82-0.1 323.27-0.1L323.27-0.1Q321.82-0.1 320.49 0.05 319.17 0.2 318.07 0.6L318.07 0.6 318.07-5.3Q316.82-2.05 314.54-0.68 312.27 0.7 309.87 0.7L309.87 0.7Q308.12 0.7 306.82 0.2 305.52-0.3 304.67-1.2L304.67-1.2Q303.72-2.2 303.37-3.8 303.02-5.4 303.02-7.75L303.02-7.75 303.02-20.3Q303.02-22.55 302.22-23.63 301.42-24.7 299.22-24.7L299.22-24.7 299.22-25.75Q300.82-25.6 302.32-25.6L302.32-25.6Q303.77-25.6 305.09-25.78 306.42-25.95 307.52-26.3L307.52-26.3 307.52-6.65Q307.52-5.1 307.72-3.8 307.92-2.5 308.72-1.7 309.52-0.9 311.32-0.9L311.32-0.9Q314.27-0.9 316.17-3.53 318.07-6.15 318.07-9.95L318.07-9.95 318.07-20.3Q318.07-22.55 317.27-23.63 316.47-24.7 314.27-24.7L314.27-24.7 314.27-25.75Q315.87-25.6 317.37-25.6L317.37-25.6Q318.82-25.6 320.14-25.78 321.47-25.95 322.57-26.3ZM344.47-26.45L344.47-26.45Q345.82-26.45 346.84-25.9 347.87-25.35 348.44-24.48 349.02-23.6 349.02-22.5L349.02-22.5Q349.02-21.25 348.24-20.3 347.47-19.35 346.17-19.35L346.17-19.35Q345.12-19.35 344.32-20.03 343.52-20.7 343.52-21.95L343.52-21.95Q343.52-22.9 344.04-23.58 344.57-24.25 345.22-24.65L345.22-24.65Q344.87-25.15 344.17-25.15L344.17-25.15Q342.07-25.15 340.52-23.58 338.97-22 338.09-19.8 337.22-17.6 337.22-15.75L337.22-15.75 337.22-5.15Q337.22-2.7 338.64-1.88 340.07-1.05 342.52-1.05L342.52-1.05 342.52 0Q341.37-0.05 339.27-0.13 337.17-0.2 334.82-0.2L334.82-0.2Q333.12-0.2 331.44-0.13 329.77-0.05 328.92 0L328.92 0 328.92-1.05Q330.97-1.05 331.84-1.8 332.72-2.55 332.72-4.65L332.72-4.65 332.72-20.3Q332.72-22.55 331.92-23.63 331.12-24.7 328.92-24.7L328.92-24.7 328.92-25.75Q330.52-25.6 332.02-25.6L332.02-25.6Q333.47-25.6 334.79-25.78 336.12-25.95 337.22-26.3L337.22-26.3 337.22-20.05Q337.77-21.5 338.79-22.98 339.82-24.45 341.27-25.45 342.72-26.45 344.47-26.45ZM362.31-26.45L362.31-26.45Q366.71-26.45 369.19-23.78 371.66-21.1 371.66-15.45L371.66-15.45 354.01-15.45 353.96-16.4 366.86-16.4Q366.96-18.85 366.46-20.93 365.96-23 364.89-24.25 363.81-25.5 362.11-25.5L362.11-25.5Q359.81-25.5 358.04-23.2 356.26-20.9 355.91-15.9L355.91-15.9 356.06-15.7Q355.96-14.95 355.91-14.05 355.86-13.15 355.86-12.25L355.86-12.25Q355.86-8.85 356.96-6.4 358.06-3.95 359.84-2.68 361.61-1.4 363.51-1.4L363.51-1.4Q365.76-1.4 367.66-2.5 369.56-3.6 370.86-6.4L370.86-6.4 371.86-6Q371.31-4.35 370.06-2.8 368.81-1.25 366.91-0.28 365.01 0.7 362.51 0.7L362.51 0.7Q358.91 0.7 356.34-0.95 353.76-2.6 352.39-5.53 351.01-8.45 351.01-12.25L351.01-12.25Q351.01-16.65 352.41-19.83 353.81-23 356.36-24.73 358.91-26.45 362.31-26.45ZM384.41-26.45L384.41-26.45Q386.41-26.45 387.81-25.8 389.21-25.15 389.86-24.6L389.86-24.6Q391.51-23.25 391.86-26.4L391.86-26.4 393.01-26.4Q392.91-25 392.86-23.08 392.81-21.15 392.81-17.9L392.81-17.9 391.66-17.9Q391.36-19.75 390.64-21.5 389.91-23.25 388.51-24.38 387.11-25.5 384.86-25.5L384.86-25.5Q383.11-25.5 381.94-24.53 380.76-23.55 380.76-21.65L380.76-21.65Q380.76-20.15 381.66-19.07 382.56-18 384.01-17.07 385.46-16.15 387.16-15.05L387.16-15.05Q390.01-13.2 392.01-11.3 394.01-9.4 394.01-6.3L394.01-6.3Q394.01-4 392.81-2.45 391.61-0.9 389.69-0.1 387.76 0.7 385.46 0.7L385.46 0.7Q384.36 0.7 383.39 0.53 382.41 0.35 381.51 0L381.51 0Q381.01-0.25 380.49-0.6 379.96-0.95 379.46-1.35L379.46-1.35Q378.96-1.75 378.56-1.33 378.16-0.9 377.96 0.35L377.96 0.35 376.81 0.35Q376.91-1.25 376.96-3.55 377.01-5.85 377.01-9.65L377.01-9.65 378.16-9.65Q378.51-6.85 379.16-4.75 379.81-2.65 381.21-1.48 382.61-0.3 385.11-0.3L385.11-0.3Q386.61-0.3 388.09-1.35 389.56-2.4 389.56-5.05L389.56-5.05Q389.56-7.25 387.96-8.65 386.36-10.05 383.91-11.6L383.91-11.6Q382.11-12.75 380.54-13.9 378.96-15.05 377.99-16.5 377.01-17.95 377.01-20L377.01-20Q377.01-22.25 378.04-23.68 379.06-25.1 380.76-25.78 382.46-26.45 384.41-26.45Z" opacity="1" transform="matrix(1,0,0,1,0,0)" fill="#000000" class="wordmark-text-0" data-fill-palette-color="primary" id="text-0"></path></svg></g></svg></g></svg></g></svg></g><g><svg viewBox="0 0 57.31666552246323 57.31666552246323" height="57.31666552246323" width="57.31666552246323"><g><svg></svg></g><g id="icon-0"><svg viewBox="0 0 57.31666552246323 57.31666552246323" height="57.31666552246323" width="57.31666552246323"><g><rect width="52.115708836165645" height="52.115708836165645" x="2.6004783431487937" y="2.6004783431487937" fill="#000000" data-fill-palette-color="accent"></rect><rect width="52.115708836165645" height="52.115708836165645" x="5.200956686297588" y="-8.881784197001252e-16" fill="#000000" opacity="0.5" data-fill-palette-color="accent"></rect></g><g transform="matrix(1,0,0,1,7.42993812328227,16.521919420764057)"><svg viewBox="0 0 42.45678927589869 24.27282668093512" height="24.27282668093512" width="42.45678927589869"><g><svg xmlns="http://www.w3.org/2000/svg" xmlns:xlink="http://www.w3.org/1999/xlink" version="1.1" x="0" y="0" viewBox="13.780999999999999 29.29399999999999 72.43400712308414 41.41100000000001" enable-background="new 0 0 100 100" xml:space="preserve" height="24.27282668093512" width="42.45678927589869" class="icon-cg-0" data-fill-palette-color="quaternary" id="cg-0"><path d="M21.471 46.924c0-1.459-1.184-2.643-2.643-2.643h-2.405c-1.459 0-2.642 1.184-2.642 2.643v7.298c0 1.459 1.183 2.643 2.642 2.643h2.405c1.459 0 2.643-1.184 2.643-2.643V46.924zM34.461 57.413c-3.67 0-6.646 2.976-6.646 6.646 0 3.67 2.977 6.646 6.646 6.646s6.646-2.977 6.646-6.646C41.107 60.389 38.131 57.413 34.461 57.413zM34.461 65.903c-1.019 0-1.845-0.826-1.845-1.844 0-1.019 0.826-1.844 1.845-1.844s1.844 0.825 1.844 1.844C36.305 65.077 35.479 65.903 34.461 65.903zM84.039 55.812c-0.079-2.277-0.26-4.306-0.639-4.958-0.288-0.496-1.25-1.114-2.553-1.772-0.845 1.614-1.012 2.996-0.484 4.106C81.115 54.771 83.063 55.523 84.039 55.812zM73.265 57.413c-3.67 0-6.646 2.976-6.646 6.646 0 3.67 2.977 6.646 6.646 6.646s6.646-2.977 6.646-6.646C79.91 60.389 76.935 57.413 73.265 57.413zM73.265 65.903c-1.019 0-1.845-0.826-1.845-1.844 0-1.019 0.826-1.844 1.845-1.844s1.844 0.825 1.844 1.844C75.108 65.077 74.283 65.903 73.265 65.903zM51.64 39.843l1.414 1.414 4.471-4.471-1.414-1.414L51.64 39.843zM35.946 41.257l4.471-4.471-1.414-1.414-4.471 4.471L35.946 41.257zM51.638 34.813L49.69 36.76l1.414 1.414 1.947-1.947L51.638 34.813zM35.944 36.227l-1.414-1.414-1.947 1.947 1.414 1.414L35.944 36.227zM84.094 59.671c0.002-0.736-0.002-1.516-0.016-2.295-0.905-0.219-3.914-1.109-5.07-3.545-0.734-1.546-0.564-3.361 0.487-5.395-3.156-1.429-11.087-4.155-11.087-4.155l-7.632-10.569c-0.758-1.238-2.273-2.253-3.727-2.253h-1.555c0.388-0.634 0.623-1.37 0.623-2.165h-2c0 1.172-0.934 2.123-2.096 2.165H37.158c-1.161-0.042-2.094-0.993-2.094-2.165h-2c0 0.795 0.235 1.531 0.623 2.165h-1.105c-1.453 0-2.945 1.205-3.165 2.642-1.319 8.635-1.62 10.005-1.688 10.181h-2.115c-1.459 0-2.643 1.183-2.643 2.642v12.781c-1.021 0.189-1.794 1.082-1.794 2.157 0 1.214 0.983 2.198 2.198 2.198h2.939c0-4.492 3.654-8.146 8.146-8.146s8.146 3.654 8.146 8.146h22.51c0-4.492 3.654-8.146 8.146-8.146s8.146 3.654 8.146 8.146h2.61c1.215 0 2.197-0.984 2.197-2.198C86.218 60.673 85.273 59.71 84.094 59.671zM35.9 49.305h-3.685v-1.5H35.9V49.305zM45.739 41.54v0.741 2h-15.87c0 0 0.926-5.961 1.525-9.878 0.066-0.441 0.699-0.944 1.188-0.944h13.157V41.54zM47.488 61.228h-1.5V47.805h1.5V61.228zM54.799 49.305h-3.685v-1.5h3.685V49.305zM47.739 44.281v-2-0.366-8.456h9.311c0.677 0 1.583 0.582 2.021 1.297 0.026 0.044 0.055 0.086 0.084 0.127l6.71 9.398H47.739z" fill="#ffffff" data-fill-palette-color="quaternary"></path></svg></g></svg></g></svg></g></svg></g></svg></g></svg></g><path d="M190.367 94.83L190.367 28.861 0.889 28.861 0.889 218.339 190.367 218.339 190.367 152.37 188.58 152.37 188.58 216.551 2.677 216.551 2.677 30.649 188.58 30.649 188.58 94.83Z" fill="#000000" stroke="transparent" data-fill-palette-color="tertiary"></path></svg></g><defs></defs></svg><rect width="395.52" height="247.2" fill="none" stroke="none" visibility="hidden"></rect></g></svg></g></svg>